<svg width="20" height="21" viewBox="0 0 20 21" fill="none" xmlns="http://www.w3.org/2000/svg">
<path d="M10 4.22359C6.75446 4.22359 4.11607 6.97264 4.11161 10.3543C4.11161 11.5125 4.42411 12.6429 5.01339 13.615L5.15179 13.8476L4.55804 16.1082L6.78571 15.4989L7 15.6338C7.90179 16.192 8.9375 16.4897 9.99554 16.4897H10C13.2411 16.4897 15.9509 13.7406 15.9509 10.359C15.9509 8.72162 15.2723 7.18196 14.1607 6.02373C13.0446 4.86085 11.5714 4.22359 10 4.22359ZM13.4598 12.9871C13.3125 13.4197 12.6071 13.8104 12.2679 13.8616C11.7054 13.9499 11.2679 13.9034 10.1473 13.4011C8.375 12.601 7.21429 10.7404 7.125 10.6194C7.03571 10.4985 6.40179 9.61936 6.40179 8.71231C6.40179 7.80527 6.85714 7.35872 7.02232 7.17266C7.18304 6.9866 7.375 6.94008 7.49554 6.94008C7.61161 6.94008 7.73214 6.94008 7.83482 6.94473C7.94196 6.94939 8.08929 6.90287 8.23214 7.26104C8.37946 7.62851 8.73214 8.53556 8.77679 8.62859C8.82143 8.72162 8.85268 8.8286 8.79018 8.94954C8.45089 9.65657 8.08929 9.62867 8.27232 9.95427C8.95536 11.1776 9.63839 11.6009 10.6786 12.1451C10.8571 12.2382 10.9598 12.2242 11.0625 12.0986C11.1652 11.9777 11.5045 11.5591 11.6205 11.3776C11.7366 11.1916 11.8571 11.2241 12.0179 11.2846C12.1786 11.3451 13.0491 11.7916 13.2277 11.8847C13.4062 11.9777 13.5223 12.0242 13.567 12.0986C13.6071 12.187 13.6071 12.5591 13.4598 12.9871ZM17.8571 0H2.14286C0.959821 0 0 1.00008 0 2.23273V18.6061C0 19.8388 0.959821 20.8389 2.14286 20.8389H17.8571C19.0402 20.8389 20 19.8388 20 18.6061V2.23273C20 1.00008 19.0402 0 17.8571 0ZM9.99554 17.7316C8.80804 17.7316 7.64286 17.42 6.61161 16.8339L2.85714 17.8619L3.86161 14.0383C3.24107 12.9219 2.91518 11.6521 2.91518 10.3497C2.91964 6.28422 6.09375 2.97698 9.99554 2.97698C11.8884 2.97698 13.6652 3.74448 15.0045 5.13994C16.3393 6.5354 17.1429 8.38671 17.1429 10.359C17.1429 14.4244 13.8973 17.7316 9.99554 17.7316Z" fill="white"/>
</svg>
