<svg width="21" height="21" viewBox="0 0 21 21" fill="none" xmlns="http://www.w3.org/2000/svg">
<path d="M10.0078 5.07831C7.16852 5.07831 4.87835 7.46454 4.87835 10.4229C4.87835 13.3813 7.16852 15.7675 10.0078 15.7675C12.8471 15.7675 15.1373 13.3813 15.1373 10.4229C15.1373 7.46454 12.8471 5.07831 10.0078 5.07831ZM10.0078 13.8976C8.17299 13.8976 6.67299 12.3393 6.67299 10.4229C6.67299 8.50648 8.16852 6.94822 10.0078 6.94822C11.8471 6.94822 13.3426 8.50648 13.3426 10.4229C13.3426 12.3393 11.8426 13.8976 10.0078 13.8976ZM16.5435 4.85969C16.5435 5.55276 16.0078 6.1063 15.3471 6.1063C14.6819 6.1063 14.1507 5.54811 14.1507 4.85969C14.1507 4.17126 14.6864 3.61308 15.3471 3.61308C16.0078 3.61308 16.5435 4.17126 16.5435 4.85969ZM19.9408 6.1249C19.8649 4.455 19.4989 2.97582 18.3248 1.75712C17.1551 0.538414 15.7355 0.156989 14.1328 0.0732616C12.481 -0.0244205 7.53013 -0.0244205 5.87835 0.0732616C4.28013 0.152338 2.86049 0.533763 1.68638 1.75246C0.512277 2.97116 0.15067 4.45035 0.0703125 6.12025C-0.0234375 7.84132 -0.0234375 12.9999 0.0703125 14.7209C0.146205 16.3908 0.512277 17.87 1.68638 19.0887C2.86049 20.3074 4.27567 20.6888 5.87835 20.7726C7.53013 20.8702 12.481 20.8702 14.1328 20.7726C15.7355 20.6935 17.1551 20.3121 18.3248 19.0887C19.4944 17.87 19.8605 16.3908 19.9408 14.7209C20.0346 12.9999 20.0346 7.84597 19.9408 6.1249ZM17.8069 16.5676C17.4587 17.4793 16.7846 18.1817 15.9051 18.5491C14.5882 19.0934 11.4632 18.9678 10.0078 18.9678C8.55245 18.9678 5.42299 19.0887 4.11049 18.5491C3.23549 18.1863 2.56138 17.4839 2.2087 16.5676C1.68638 15.1954 1.80692 11.9393 1.80692 10.4229C1.80692 8.90652 1.69085 5.64579 2.2087 4.27824C2.55692 3.36654 3.23102 2.66416 4.11049 2.29669C5.42745 1.75246 8.55245 1.87805 10.0078 1.87805C11.4632 1.87805 14.5926 1.75712 15.9051 2.29669C16.7801 2.65951 17.4542 3.36189 17.8069 4.27824C18.3292 5.65044 18.2087 8.90652 18.2087 10.4229C18.2087 11.9393 18.3292 15.2 17.8069 16.5676Z" fill="white"/>
</svg>
