<svg width="20" height="21" viewBox="0 0 20 21" fill="none" xmlns="http://www.w3.org/2000/svg">
<path d="M17.8571 0H2.14286C1.57454 0 1.02949 0.235234 0.627628 0.653953C0.225765 1.07267 0 1.64058 0 2.23273L0 18.6061C0 19.1983 0.225765 19.7662 0.627628 20.1849C1.02949 20.6036 1.57454 20.8389 2.14286 20.8389H8.27009V13.7541H5.45759V10.4194H8.27009V7.87783C8.27009 4.9869 9.92188 3.39003 12.4518 3.39003C13.6634 3.39003 14.9304 3.61517 14.9304 3.61517V6.4526H13.5344C12.1589 6.4526 11.7299 7.34197 11.7299 8.25414V10.4194H14.8004L14.3094 13.7541H11.7299V20.8389H17.8571C18.4255 20.8389 18.9705 20.6036 19.3724 20.1849C19.7742 19.7662 20 19.1983 20 18.6061V2.23273C20 1.64058 19.7742 1.07267 19.3724 0.653953C18.9705 0.235234 18.4255 0 17.8571 0Z" fill="white"/>
</svg>
